#!OML:ASF G:\JayActor3\Patient Classification 1\Patient 1\Session 6\male.ASF
:FULLY-SPECIFIED
:DEGREES
1553
root -34.192 16.4271 -15.9741 535.726 -29.4004 -538.23
lowerback 4.1209 0.243058 0.363548
upperback 4.334 0.136829 0.148108
thorax 2.14292 -0.00698676 -0.0576814
lowerneck -1.53811 2.81743 5.34478
upperneck 1.44196 3.54291 1.31488
head 0.768093 1.78291 -0.436446
rclavicle 4.09496e-014 -9.14409e-015
rhumerus -32.0237 -6.01402 -81.022
rradius 34.2048
rwrist -1.41798
rhand -19.8398 -9.46318
rfingers 7.12502
rthumb 6.49449 -39.3436
lclavicle 4.09496e-014 -9.14409e-015
lhumerus -27.0736 6.46143 84.5411
lradius 26.4669
lwrist 25.2528
lhand -14.8848 6.26825
lfingers 7.12502
lthumb 11.2758 35.9452
rfemur -6.93843 -1.96541 17.0298
rtibia 34.9845
rfoot -29.2037 -18.8571
rtoes 8.52424
lfemur -4.68891 8.09712 -16.0034
ltibia 25.3576
lfoot -16.2563 5.86858
ltoes -10.3333
1554
root -34.205 16.4269 -15.9645 535.733 -29.1588 -538.194
lowerback 4.15828 0.24836 0.29847
upperback 4.31572 0.142784 0.155116
thorax 2.10287 -0.00578936 -0.0142123
lowerneck -1.75248 2.58944 5.10903
upperneck 1.82999 3.20722 1.66889
head 0.906747 1.62492 -0.288207
rclavicle -1.21507e-014 4.17448e-015
rhumerus -32.0139 -6.00218 -81.0156
rradius 34.2239
rwrist -1.41972
rhand -19.8352 -9.36791
rfingers 7.12502
rthumb 6.49895 -39.2482
lclavicle -1.21507e-014 4.17448e-015
lhumerus -27.0851 6.58312 84.5389
lradius 26.3401
lwrist 25.1528
lhand -14.8797 6.26899
lfingers 7.12502
lthumb 11.2807 35.9457
rfemur -7.02012 -1.90541 17.0026
rtibia 34.98
rfoot -29.0264 -18.7975
rtoes 8.37375
lfemur -4.6913 8.2342 -16.0114
ltibia 25.3873
lfoot -16.3173 5.97266
ltoes -10.4842
1555
root -34.2181 16.4268 -15.9546 535.742 -28.909 -538.16
lowerback 4.19666 0.251203 0.228715
upperback 4.29752 0.145246 0.161988
thorax 2.06232 -0.00644051 0.0318082
lowerneck -1.97069 2.35441 4.87872
upperneck 2.23468 2.86027 2.00389
head 1.05477 1.46211 -0.147764
rclavicle 5.62561e-014 -5.96354e-015
rhumerus -31.9962 -6.00212 -81.0111
rradius 34.2377
rwrist -1.40223
rhand -19.8248 -9.3133
rfingers 7.12502
rthumb 6.50891 -39.1933
lclavicle 5.62561e-014 -5.96354e-015
lhumerus -27.0987 6.72835 84.5241
lradius 26.2054
lwrist 25.04
lhand -14.8712 6.25613
lfingers 7.12502
lthumb 11.289 35.9323
rfemur -7.11113 -1.83977 16.9745
rtibia 34.9812
rfoot -28.8422 -18.7342
rtoes 8.2183
lfemur -4.69609 8.37572 -16.0212
ltibia 25.4161
lfoot -16.3798 6.07601
ltoes -10.6477
1556
root -34.2315 16.4267 -15.9444 535.758 -28.6478 -538.128
lowerback 4.2307 0.25175 0.153815
upperback 4.28048 0.144407 0.1679
thorax 2.02538 -0.00883802 0.0798067
lowerneck -2.18806 2.11672 4.64424
upperneck 2.64437 2.5083 2.33275
head 1.20765 1.29724 -0.00923442
rclavicle -8.11787e-014 2.78299e-015
rhumerus -31.9393 -6.03461 -81.0187
rradius 34.2215
rwrist -1.34974
rhand -19.8225 -9.31622
rfingers 7.12502
rthumb 6.51116 -39.1961
lclavicle -8.11787e-014 2.78299e-015
lhumerus -27.1133 6.88497 84.4987
lradius 26.0663
lwrist 24.9234
lhand -14.8718 6.23564
lfingers 7.12502
lthumb 11.2884 35.9119
rfemur -7.2136 -1.76239 16.9444
rtibia 34.9878
rfoot -28.6677 -18.6697
rtoes 8.06785
lfemur -4.70495 8.53325 -16.0333
ltibia 25.4436
lfoot -16.4417 6.16916
ltoes -10.8344
1557
root -34.2451 16.4268 -15.934 535.782 -28.3773 -538.103
lowerback 4.25921 0.250135 0.0732561
upperback 4.26621 0.14037 0.170457
thorax 1.99441 -0.0129476 0.127618
lowerneck -2.39271 1.87904 4.39693
upperneck 3.04507 2.15598 2.66551
head 1.35883 1.13214 0.132099
rclavicle 2.02263e-014 -3.97569e-015
rhumerus -31.854 -6.09438 -81.0334
rradius 34.1771
rwrist -1.27939
rhand -19.8351 -9.30929
rfingers 7.12502
rthumb 6.49904 -39.1896
lclavicle 2.02263e-014 -3.97569e-015
lhumerus -27.1248 7.04555 84.4637
lradius 25.9211
lwrist 24.8051
lhand -14.8815 6.20362
lfingers 7.12502
lthumb 11.279 35.8804
rfemur -7.32462 -1.67669 16.9072
rtibia 34.9988
rfoot -28.5017 -18.5952
rtoes 7.93329
lfemur -4.71564 8.69875 -16.0533
ltibia 25.4685
lfoot -16.5042 6.25965
ltoes -11.0248
1558
root -34.2589 16.4269 -15.9234 535.809 -28.1005 -538.082
lowerback 4.2748 0.246451 -0.00191697
upperback 4.26196 0.133194 0.164217
thorax 1.98106 -0.0185657 0.163477
lowerneck -2.61478 1.63598 4.16023
upperneck 3.45627 1.79328 2.98608
head 1.52032 0.962527 0.267813
rclavicle 7.28546e-014 -7.95139e-015
rhumerus -31.754 -6.15182 -81.0692
rradius 34.1382
rwrist -1.2268
rhand -19.8574 -9.2993
rfingers 7.12502
rthumb 6.47753 -39.1802
lclavicle 7.28546e-014 -7.95139e-015
lhumerus -27.1227 7.20308 84.4131
lradius 25.7718
lwrist 24.6854
lhand -14.8903 6.1695
lfingers 7.12502
lthumb 11.2706 35.8467
rfemur -7.44077 -1.5852 16.8655
rtibia 35.0124
rfoot -28.3494 -18.5095
rtoes 7.82779
lfemur -4.72712 8.86847 -16.0778
ltibia 25.4913
lfoot -16.5653 6.34824
ltoes -11.2256
1559
root -34.273 16.427 -15.9126 535.838 -27.8283 -538.068
lowerback 4.28181 0.237131 -0.0773143
upperback 4.2673 0.117964 0.15132
thorax 1.98249 -0.0283698 0.192832
lowerneck -2.83398 1.38995 3.90864
upperneck 3.86103 1.42503 3.3201
head 1.68279 0.790251 0.409998
rclavicle 3.80424e-014 -1.0138e-014
rhumerus -31.6544 -6.19332 -81.1181
rradius 34.1163
rwrist -1.19692
rhand -19.8865 -9.27978
rfingers 7.12502
rthumb 6.44943 -39.1616
lclavicle 3.80424e-014 -1.0138e-014
lhumerus -27.1096 7.35652 84.3527
lradius 25.6186
lwrist 24.5666
lhand -14.9021 6.1452
lfingers 7.12502
lthumb 11.2592 35.823
rfemur -7.55461 -1.49581 16.8166
rtibia 35.0263
rfoot -28.2033 -18.4318
rtoes 7.71107
lfemur -4.73639 9.039 -16.1105
ltibia 25.5125
lfoot -16.6243 6.43439
ltoes -11.4617
1560
root -34.2875 16.4271 -15.9017 535.868 -27.5564 -538.055
lowerback 4.27967 0.225253 -0.147827
upperback 4.28163 0.0989584 0.134236
thorax 1.99839 -0.0401326 0.215242
lowerneck -3.05371 1.13795 3.63469
upperneck 4.26017 1.04675 3.67646
head 1.84733 0.613161 0.562811
rclavicle -3.7123e-014 1.72943e-014
rhumerus -31.5709 -6.20566 -81.1736
rradius 34.1281
rwrist -1.20374
rhand -19.9134 -9.25653
rfingers 7.12502
rthumb 6.42343 -39.1391
lclavicle -3.7123e-014 1.72943e-014
lhumerus -27.0843 7.51141 84.2837
lradius 25.4615
lwrist 24.4381
lhand -14.9027 6.1344
lfingers 7.12502
lthumb 11.2586 35.8123
rfemur -7.6691 -1.41198 16.7661
rtibia 35.0383
rfoot -28.0449 -18.3624
rtoes 7.56949
lfemur -4.74566 9.20943 -16.1452
ltibia 25.5334
lfoot -16.6845 6.51725
ltoes -11.7092
1561
root -34.3022 16.4273 -15.8907 535.898 -27.2829 -538.037
lowerback 4.27163 0.210645 -0.214065
upperback 4.3018 0.0760813 0.116557
thorax 2.02369 -0.0539078 0.234725
lowerneck -3.28222 0.877545 3.34888
upperneck 4.66444 0.654449 4.04123
head 2.01949 0.429585 0.720332
rclavicle -3.32467e-014 1.35174e-014
rhumerus -31.5176 -6.16541 -81.2383
rradius 34.1924
rwrist -1.26252
rhand -19.9371 -9.26348
rfingers 7.12502
rthumb 6.40052 -39.1468
lclavicle -3.32467e-014 1.35174e-014
lhumerus -27.051 7.66546 84.2099
lradius 25.3002
lwrist 24.3067
lhand -14.9113 6.12232
lfingers 7.12502
lthumb 11.2503 35.8006
rfemur -7.7832 -1.32572 16.7197
rtibia 35.0471
rfoot -27.886 -18.2864
rtoes 7.45681
lfemur -4.75645 9.37115 -16.1779
ltibia 25.5547
lfoot -16.7451 6.61186
ltoes -11.9351
